<svg width="166" height="47" viewBox="0 0 166 47" fill="none" xmlns="http://www.w3.org/2000/svg">
<g id="logo">
<path id="Vector" d="M61.8424 24.8079C61.5461 26.8031 61.3752 28.7721 62.2497 30.657C62.9534 32.1701 64.2211 32.9281 65.7851 33.1691C68.7421 33.6222 71.4057 32.9397 73.6647 30.8748C74.5308 30.0819 75.1461 29.1032 75.5592 27.9967C76.9721 27.988 78.3737 27.9822 79.838 27.9735C79.6272 28.4701 79.4534 28.9435 79.2341 29.3965C77.2314 33.5496 73.9582 36.0269 69.534 36.9127C67.369 37.3454 65.1811 37.3948 63.0388 36.7646C59.6517 35.7655 57.7031 33.4305 57.122 29.9048C56.7602 27.7005 57.0507 25.531 57.5208 23.3761C58.119 20.6316 59.0734 18.0323 60.6658 15.7147C62.885 12.4823 65.8164 10.2984 69.6565 9.51423C71.645 9.10764 73.6505 9.0147 75.6304 9.53746C78.6672 10.3419 80.4818 12.3894 81.2197 15.4621C81.6356 17.193 81.6356 18.9588 81.4589 20.7129C81.3336 21.9414 81.0744 23.1583 80.8835 24.3809C80.8436 24.6394 80.7325 24.712 80.4733 24.7149C74.394 24.7382 68.3148 24.7701 62.2355 24.8021C62.113 24.805 61.9905 24.8079 61.8424 24.8079ZM77.1089 21.1485C77.1972 19.8852 77.2798 18.6567 77.0434 17.4369C76.6702 15.5144 75.6418 14.1319 73.753 13.5772C71.2119 12.8309 68.8503 13.2462 66.7508 14.9277C64.7396 16.5395 63.4861 18.6829 62.6457 21.1079C62.6343 21.1427 62.6457 21.1834 62.6457 21.2241C67.4687 21.1979 72.2745 21.1718 77.1089 21.1485Z" fill="black"/>
<path id="Vector_2" d="M116.259 24.5233C116.069 25.6617 115.932 26.7857 116.057 27.9183C116.128 28.5572 116.228 29.2078 116.43 29.8119C117.037 31.6299 118.379 32.6028 120.188 32.8816C123.156 33.3405 125.826 32.6464 128.093 30.5699C128.868 29.8612 129.321 29.1555 129.979 27.7092C131.378 27.7005 132.779 27.6947 134.221 27.686C134.167 27.8457 134.124 27.9851 134.07 28.1187C132.101 32.9978 128.538 35.8439 123.453 36.7123C121.444 37.055 119.424 37.0695 117.45 36.4829C114.063 35.4809 112.114 33.1488 111.53 29.6231C111.166 27.4188 111.459 25.2493 111.929 23.0944C112.528 20.3499 113.482 17.7506 115.074 15.433C117.294 12.2006 120.222 10.0138 124.062 9.22963C126.059 8.82304 128.076 8.7272 130.067 9.26158C133.093 10.0689 134.893 12.1164 135.628 15.1746C136.044 16.9055 136.044 18.6713 135.867 20.4254C135.745 21.6452 135.486 22.8504 135.301 24.0615C135.258 24.3403 135.144 24.4274 134.856 24.4303C128.788 24.4507 122.718 24.4855 116.65 24.5175C116.527 24.5233 116.402 24.5233 116.259 24.5233ZM131.489 20.861C131.663 19.589 131.677 17.5589 131.23 16.2898C130.714 14.8261 129.763 13.8009 128.31 13.3391C126.176 12.6624 124.094 12.8105 122.139 13.9693C120.216 15.1107 118.889 16.8155 117.9 18.8107C117.564 19.4873 117.296 20.196 116.974 20.9336C121.869 20.9104 126.68 20.8872 131.489 20.861Z" fill="black"/>
<path id="Vector_3" d="M106.206 36.2941C104.346 36.3028 102.534 36.3086 100.725 36.3289C100.523 36.3318 100.492 36.204 100.437 36.0675C99.0957 32.748 97.751 29.4285 96.4064 26.109C95.9706 25.0344 95.5376 23.9569 95.0846 22.8388C94.6516 23.1931 94.2385 23.5242 93.8312 23.8611C92.9309 24.5988 92.025 25.3306 91.1362 26.0799C90.9995 26.1961 90.8884 26.3936 90.8513 26.5707C90.2104 29.8002 89.5837 33.0355 88.9512 36.2679C88.9455 36.297 88.9341 36.326 88.9199 36.3725C87.467 36.3812 86.0142 36.387 84.5271 36.3957C86.9229 24.2648 89.3159 12.1455 91.7088 0.0232332C93.1759 0.0145205 94.6203 0.00871267 96.113 0C94.7342 6.944 93.3583 13.8706 91.9652 20.8872C92.5549 20.3964 93.0791 19.9636 93.6004 19.5309C97.3921 16.3798 101.181 13.2287 104.967 10.0689C105.189 9.88307 105.411 9.80466 105.696 9.80466C107.331 9.80756 108.967 9.79304 110.599 9.78433C110.702 9.78433 110.804 9.78433 110.975 9.78142C110.853 9.89469 110.776 9.9702 110.69 10.0399C106.839 13.1968 102.987 16.3566 99.127 19.5077C98.919 19.679 98.9133 19.801 99.0159 20.0333C101.358 25.3132 103.691 30.5989 106.027 35.8817C106.084 35.9978 106.135 36.1227 106.206 36.2941Z" fill="black"/>
<path id="Vector_4" d="M136.409 46.5896C136.679 45.2275 136.944 43.8886 137.215 42.5236C138.178 42.9041 139.164 42.9854 140.163 42.9302C141.044 42.8809 141.839 42.5585 142.36 41.8237C143.209 40.6214 143.992 39.3668 144.793 38.1296C145.043 37.7404 145.249 37.3193 145.505 36.933C145.682 36.6658 145.71 36.4073 145.662 36.0966C145.078 32.446 144.505 28.7925 143.927 25.139C143.42 21.9356 142.913 18.7351 142.408 15.5318C142.101 13.5743 141.796 11.6169 141.485 9.63912C143.155 9.63041 144.816 9.6217 146.508 9.61299C147.357 16.8213 148.206 24.0266 149.054 31.2349C149.077 31.2407 149.097 31.2494 149.12 31.2553C149.166 31.171 149.214 31.0897 149.26 31.0055C152.903 24.0266 156.55 17.0507 160.179 10.0631C160.401 9.63622 160.635 9.49391 161.102 9.50263C162.484 9.53167 163.868 9.50262 165.29 9.49391C165.247 9.59266 165.221 9.66817 165.181 9.73787C159.885 19.1911 154.598 28.6502 149.282 38.0918C148.086 40.2177 146.778 42.271 145.274 44.1936C143.907 45.9419 142.098 46.7638 139.958 46.9468C138.873 47.0397 137.796 47.0397 136.742 46.7086C136.637 46.6738 136.531 46.6331 136.409 46.5896Z" fill="black"/>
<g id="Group">
<path id="Vector_5" d="M21.2276 26.4139L20.6065 24.7062L19.7035 22.2231L18.8118 23.8001L19.7149 26.2832L20.3359 27.9909L21.239 30.474L22.1306 28.897L21.2276 26.4139ZM23.4952 33.3695C23.4354 32.7306 23.2929 32.0888 23.0622 31.4586L22.7516 30.6047L22.1306 28.897L21.2276 26.4139L20.6065 24.7062L19.7035 22.2231L19.0824 20.5154L18.1794 18.0323L17.5584 16.3246L14.4048 7.64973C13.2881 4.57996 10.4307 2.68931 7.39681 2.70383C6.55073 2.70964 5.69041 2.86066 4.85002 3.18013C1.00134 4.63514 -0.961457 8.99729 0.465774 12.9209L9.12601 36.7297C9.12886 36.7355 9.12886 36.7413 9.13171 36.7442C9.1659 36.8343 9.20008 36.9243 9.23427 37.0114C9.25421 37.0579 9.27415 37.1044 9.29409 37.1508C9.33397 37.2409 9.37386 37.328 9.41374 37.4151C9.41374 37.418 9.41659 37.4209 9.41944 37.4267C9.44223 37.4732 9.46217 37.5168 9.48496 37.5603C9.50775 37.6039 9.53054 37.6475 9.55333 37.691C9.57042 37.7259 9.59036 37.7607 9.6103 37.7956C9.66158 37.8914 9.71856 37.9873 9.77553 38.0831C9.80117 38.1237 9.82396 38.1644 9.8496 38.2022C9.87524 38.2428 9.90088 38.2835 9.92937 38.3241C9.955 38.3648 9.98349 38.4055 10.012 38.4461C10.0405 38.4868 10.0661 38.5245 10.0946 38.5652C10.1174 38.6 10.143 38.632 10.1687 38.6668C10.2228 38.7394 10.2798 38.812 10.3367 38.8847C10.3538 38.9079 10.3738 38.9311 10.3937 38.9544C10.5504 39.146 10.7156 39.329 10.8922 39.5062C10.915 39.5294 10.9378 39.5526 10.9606 39.573C10.9863 39.5991 11.0119 39.6223 11.0375 39.6456C11.1686 39.7704 11.3053 39.8924 11.4478 40.0057C11.4791 40.0318 11.5133 40.058 11.5446 40.0841C11.5731 40.1073 11.6016 40.1277 11.6329 40.1509C11.7041 40.2061 11.7754 40.2584 11.8494 40.3106C11.8836 40.3339 11.9178 40.36 11.9548 40.3832C11.989 40.4065 12.0261 40.4297 12.0602 40.4558C12.1001 40.482 12.14 40.5081 12.1799 40.5343C12.2112 40.5546 12.2426 40.5749 12.2767 40.5923C12.3138 40.6156 12.3508 40.6359 12.3878 40.6591C12.4762 40.7114 12.5673 40.7608 12.6585 40.8102C12.6898 40.8276 12.724 40.845 12.7582 40.8624C12.8066 40.8886 12.8579 40.9118 12.9063 40.9379C12.9405 40.9554 12.9747 40.9699 13.0089 40.9873C13.0943 41.028 13.1798 41.0657 13.2653 41.1006C13.3251 41.1267 13.3878 41.1499 13.4476 41.1761H13.4504C13.798 41.3097 14.1541 41.42 14.5159 41.5014C14.5672 41.513 14.6213 41.5246 14.6726 41.5333C14.7039 41.5391 14.7381 41.5449 14.7694 41.5507C14.8036 41.5565 14.8378 41.5624 14.872 41.5682C15.0116 41.5914 15.1511 41.6117 15.2907 41.6262C15.3306 41.632 15.3734 41.635 15.4132 41.6379C15.4446 41.6408 15.4788 41.6437 15.5129 41.6466C15.644 41.6582 15.7722 41.664 15.9032 41.6669C15.9431 41.6669 15.983 41.6698 16.0257 41.6698C16.0457 41.6698 16.0628 41.6698 16.0827 41.6698C16.1026 41.6698 16.1197 41.6698 16.1397 41.6698C16.1767 41.6698 16.2137 41.6698 16.2508 41.6669C16.2907 41.664 16.3305 41.664 16.3704 41.664C16.6069 41.6553 16.8433 41.635 17.0826 41.603C17.1225 41.5972 17.1624 41.5914 17.2051 41.5856C17.3561 41.5624 17.5071 41.5362 17.6552 41.5014C17.715 41.4897 17.7749 41.4752 17.8318 41.4607C17.8575 41.4549 17.8803 41.4491 17.9031 41.4433C17.9429 41.4346 17.98 41.423 18.0199 41.4113C18.0569 41.3997 18.0939 41.391 18.131 41.3794C18.1338 41.3794 18.1367 41.3794 18.1367 41.3765C18.168 41.3678 18.1965 41.3591 18.2278 41.3503C18.3275 41.3213 18.4272 41.2864 18.5269 41.2516C18.5782 41.2342 18.6323 41.2138 18.6836 41.1935C18.695 41.1877 18.7093 41.1848 18.7206 41.179C18.7662 41.1616 18.8118 41.1441 18.8545 41.1267H18.8574C18.94 41.0948 19.0198 41.0599 19.0995 41.0222C19.1907 40.9815 19.279 40.9408 19.3673 40.8944C19.4129 40.8711 19.4556 40.8508 19.4984 40.8276C19.5468 40.8014 19.5981 40.7753 19.6436 40.7492C19.6807 40.7288 19.7177 40.7085 19.7548 40.6853C19.8858 40.6098 20.014 40.5314 20.1393 40.4471C20.1764 40.4239 20.2134 40.4007 20.2476 40.3745C20.2789 40.3513 20.3131 40.331 20.3444 40.3077C20.4584 40.2264 20.5695 40.1422 20.6777 40.0551C20.7091 40.0289 20.7404 40.0057 20.7718 39.9795C20.7945 39.9621 20.8173 39.9418 20.8401 39.9215C20.8686 39.8982 20.8971 39.8721 20.9227 39.8489C21.1392 39.663 21.3444 39.4597 21.5409 39.2448C21.5723 39.2099 21.6036 39.1751 21.6349 39.1373C21.8343 38.9108 22.0195 38.6697 22.1933 38.4142C22.2674 38.3067 22.3357 38.1993 22.4013 38.0889C22.424 38.0511 22.4468 38.0134 22.4668 37.9785C22.4896 37.9408 22.5095 37.903 22.5323 37.8653L22.5522 37.8304C23.3015 36.5061 23.6462 34.9465 23.4952 33.3695ZM21.3444 37.177C21.3216 37.2205 21.2959 37.2612 21.2703 37.3048C20.9199 37.8943 20.4812 38.4142 19.9684 38.8469C19.9314 38.8788 19.8943 38.9079 19.8573 38.9398C19.8174 38.9718 19.7775 39.0037 19.7377 39.0357C19.6949 39.0676 19.6493 39.1025 19.6066 39.1344C19.5525 39.1751 19.4984 39.2128 19.4414 39.2506C19.4157 39.268 19.3873 39.2854 19.3616 39.3058C19.336 39.3232 19.3075 39.3406 19.2819 39.358C19.2391 39.3842 19.1964 39.4103 19.1537 39.4365C19.1337 39.4481 19.1109 39.4626 19.0881 39.4742C19.0653 39.4858 19.0454 39.5004 19.0226 39.512C18.9799 39.5352 18.9343 39.5613 18.8916 39.5846C18.846 39.6078 18.8033 39.631 18.7577 39.6514L18.7548 39.6543C18.6665 39.6978 18.5782 39.7385 18.4899 39.7792H18.4871C18.4443 39.7966 18.4016 39.8169 18.356 39.8343C18.2791 39.8663 18.2022 39.8953 18.1224 39.9244C18.0939 39.936 18.0626 39.9447 18.0341 39.9563C18.0028 39.9679 17.9714 39.9766 17.9429 39.9883C17.3532 40.1799 16.7436 40.2816 16.1311 40.2845C16.0941 40.2845 16.0599 40.2845 16.0229 40.2845C15.9887 40.2845 15.9573 40.2816 15.9232 40.2816C15.8918 40.2816 15.8605 40.2787 15.8292 40.2787C15.7579 40.2758 15.6867 40.27 15.6183 40.2671C15.5842 40.2642 15.5471 40.2613 15.5129 40.2584C15.4816 40.2555 15.4503 40.2525 15.4218 40.2496C15.3705 40.2438 15.3221 40.238 15.2736 40.2293C15.1739 40.2148 15.0771 40.2003 14.9802 40.1799C14.7352 40.1335 14.4931 40.0696 14.2566 39.9941C14.1997 39.9737 14.1398 39.9534 14.0829 39.9331C14.0487 39.9215 14.0173 39.9098 13.9832 39.8953C13.798 39.8256 13.6128 39.7443 13.4333 39.6543C13.3422 39.6107 13.2539 39.5613 13.1656 39.512C13.1371 39.4945 13.1057 39.4771 13.0772 39.4626C13.0345 39.4365 12.9889 39.4103 12.9462 39.3842C12.9035 39.358 12.8636 39.3319 12.8209 39.3058C12.818 39.3029 12.8152 39.3029 12.8123 39.3C12.7354 39.2506 12.6613 39.1983 12.5901 39.146C12.5787 39.1373 12.5673 39.1286 12.5559 39.1199C12.5189 39.0938 12.4847 39.0676 12.4477 39.0386C12.4163 39.0154 12.385 38.9892 12.3537 38.966C12.3081 38.9311 12.2625 38.8934 12.2169 38.8556C12.1998 38.8411 12.1827 38.8266 12.1685 38.812C12.1201 38.7685 12.0716 38.7278 12.0232 38.6843C12.0004 38.6639 11.9776 38.6407 11.9548 38.6204C11.8665 38.5362 11.7811 38.449 11.6984 38.359C11.6757 38.3358 11.6557 38.3125 11.6329 38.2893C11.5503 38.1993 11.4734 38.1092 11.3993 38.0134C11.3737 37.9843 11.3509 37.9524 11.3281 37.9205C11.3025 37.8914 11.2797 37.8595 11.2569 37.8275C11.2341 37.7956 11.2113 37.7665 11.1885 37.7346C11.1857 37.7317 11.1828 37.7288 11.1828 37.7259C11.1173 37.63 11.0518 37.5342 10.992 37.4384C10.972 37.4035 10.9492 37.3716 10.9293 37.3367C10.747 37.0318 10.5903 36.7094 10.4621 36.3725C10.4478 36.3347 10.4336 36.2999 10.4194 36.2621C10.4194 36.2621 10.4194 36.2621 10.4194 36.2592L8.9209 32.1411L1.75341 12.433C0.591118 9.23834 2.19497 5.67776 5.32861 4.49284C5.99807 4.24017 6.69602 4.10948 7.40251 4.10657C8.63318 4.10077 9.82396 4.47251 10.8467 5.18114C11.8893 5.90429 12.6756 6.92658 13.1143 8.13764L16.6667 17.9016L17.2877 19.6093L18.1908 22.0924L18.8118 23.8001L19.7149 26.2832L20.3359 27.9909L21.239 30.474L21.7745 31.9465C21.803 32.0278 21.8315 32.1062 21.8571 32.1875C22.33 33.6658 22.2417 35.2486 21.6007 36.6716C21.5267 36.8343 21.4469 36.9911 21.3615 37.145L21.3444 37.177Z" fill="#1485F5"/>
<path id="Vector_6" d="M19.9427 32.7713C19.9313 32.7335 19.9171 32.6929 19.9028 32.6551L19.0425 30.2852L18.4215 28.5776L17.5184 26.0945L16.8974 24.3868L15.9943 21.9037L15.3733 20.196L11.2426 8.84628C10.6529 7.22281 9.11458 6.13663 7.41387 6.14535C6.94097 6.14825 6.47377 6.23538 6.02367 6.40673C3.92413 7.19958 2.85015 9.58685 3.62786 11.7273L10.1003 29.5214L10.7241 31.2349L12.2625 35.4664C12.271 35.4896 12.2796 35.5129 12.2881 35.5361C12.3137 35.6087 12.3422 35.6784 12.3736 35.7481C12.3736 35.751 12.3764 35.7539 12.3764 35.7568C12.3907 35.7917 12.4077 35.8294 12.4248 35.8643C12.4505 35.9194 12.479 35.9746 12.5075 36.0298C12.9348 36.8517 13.6185 37.4935 14.4304 37.8711C14.4646 37.8856 14.4987 37.903 14.5358 37.9176C14.5358 37.9176 14.5358 37.9176 14.5386 37.9176C14.607 37.9466 14.6754 37.9727 14.7437 37.9989C14.8406 38.0337 14.9375 38.0657 15.0372 38.0918C15.0543 38.0976 15.0713 38.1005 15.0884 38.1063C15.1169 38.115 15.1426 38.1208 15.171 38.1267C15.1853 38.1296 15.1967 38.1325 15.2109 38.1354C15.2366 38.1412 15.2651 38.147 15.2907 38.1528C15.3049 38.1557 15.322 38.1586 15.3363 38.1615C15.3619 38.1673 15.3904 38.1731 15.416 38.176C15.436 38.1789 15.4531 38.1818 15.473 38.1847C15.5044 38.1905 15.5357 38.1964 15.567 38.1993C15.5841 38.2022 15.6012 38.2051 15.6183 38.2051C15.6525 38.208 15.6867 38.2138 15.7237 38.2167C15.7607 38.2196 15.7978 38.2225 15.8348 38.2254C15.8405 38.2254 15.8462 38.2254 15.8491 38.2254C15.9374 38.2312 16.0285 38.2341 16.1197 38.2341C16.5926 38.2312 17.0598 38.1441 17.5099 37.9727C17.9856 37.7927 18.4072 37.5313 18.7662 37.2089C18.7947 37.1828 18.8203 37.1595 18.8488 37.1334C18.8801 37.1044 18.9086 37.0753 18.94 37.0463C18.9542 37.0318 18.9713 37.0172 18.9855 36.9998C19.0112 36.9737 19.0368 36.9475 19.0625 36.9185C19.091 36.8866 19.1223 36.8517 19.1508 36.8198C19.1764 36.7907 19.1992 36.7617 19.2248 36.7326C19.2419 36.7123 19.2562 36.692 19.2733 36.6716C19.2932 36.6455 19.316 36.6194 19.3359 36.5903C19.3673 36.5468 19.3986 36.5032 19.43 36.4596C19.4527 36.4277 19.4755 36.3928 19.4955 36.3609C19.5069 36.3406 19.5211 36.3231 19.5325 36.3028C19.5468 36.2796 19.561 36.2563 19.5752 36.2331C19.5866 36.2128 19.6009 36.1895 19.6123 36.1692C19.6237 36.1489 19.6379 36.1256 19.6493 36.1024C19.6579 36.0879 19.6664 36.0705 19.6749 36.0559C19.6863 36.0356 19.6977 36.0124 19.7091 35.9921C19.7917 35.8294 19.863 35.6581 19.9256 35.4867C19.9313 35.4693 19.9399 35.449 19.9456 35.4315C19.9798 35.3299 20.0111 35.2282 20.0367 35.1237C20.0424 35.1005 20.0481 35.0743 20.0538 35.0511C20.0595 35.0337 20.0624 35.0162 20.0652 34.9988C20.088 34.903 20.1051 34.8071 20.1194 34.7084C20.1222 34.691 20.1251 34.6706 20.1279 34.6532C20.1307 34.6358 20.1336 34.6184 20.1336 34.6009C20.1478 34.4964 20.1564 34.3918 20.1621 34.2873C20.1621 34.2669 20.1649 34.2437 20.1649 34.2205C20.1678 33.7413 20.1023 33.2505 19.9427 32.7713ZM15.8234 36.8198C15.8006 36.8168 15.7807 36.8168 15.7579 36.811C15.7522 36.811 15.7437 36.8081 15.7351 36.8081C15.7152 36.8052 15.6952 36.8023 15.6753 36.7994C15.6468 36.7965 15.6183 36.7907 15.5898 36.7849C15.4901 36.7646 15.3904 36.7384 15.2907 36.7094C15.2594 36.7007 15.2252 36.6891 15.1938 36.6774C15.1625 36.6658 15.1312 36.6542 15.0998 36.6397C15.0685 36.6252 15.0372 36.6136 15.0058 36.599C14.9631 36.5787 14.9204 36.5584 14.8776 36.538C14.8548 36.5264 14.832 36.5119 14.8064 36.5003C14.8007 36.4974 14.7922 36.4916 14.7865 36.4887C14.7608 36.4741 14.7352 36.4596 14.7124 36.4451C14.6839 36.4277 14.6554 36.4103 14.6269 36.3899C14.5871 36.3638 14.55 36.3377 14.513 36.3086C14.4987 36.297 14.4845 36.2883 14.4703 36.2767C14.2594 36.114 14.0686 35.9165 13.9119 35.6929C13.8891 35.6581 13.8635 35.6232 13.8407 35.5884C13.8122 35.5477 13.7866 35.5041 13.7638 35.4606C13.7524 35.4402 13.741 35.417 13.7296 35.3967C13.7153 35.3705 13.7039 35.3473 13.6897 35.3212C13.6754 35.295 13.6641 35.2718 13.6527 35.2457C13.6242 35.1818 13.5957 35.115 13.5729 35.0482C13.5672 35.0337 13.5615 35.0162 13.5558 35.0017L12.5132 32.1381L11.6072 29.6521L10.9862 27.9444L4.9155 11.2364C4.66766 10.5511 4.6933 9.80757 4.99527 9.1425C5.29439 8.47744 5.82995 7.9692 6.50226 7.71653C6.80138 7.60327 7.1119 7.54518 7.42241 7.54228C8.54483 7.53647 9.56468 8.25381 9.95496 9.33128L14.4816 21.7701L15.1027 23.4778L16.0057 25.9609L16.6268 27.6685L17.5298 30.1517L18.1509 31.8593L18.6152 33.1372C18.863 33.8226 18.8374 34.5661 18.5354 35.2311C18.4699 35.3764 18.393 35.5158 18.3047 35.6435C18.2677 35.6987 18.2278 35.7539 18.1879 35.8033C18.1765 35.8178 18.1651 35.8323 18.1537 35.8468C18.1395 35.8672 18.1224 35.8875 18.1053 35.9049C18.091 35.9223 18.0739 35.9398 18.0568 35.9572C18.0426 35.9746 18.0255 35.9921 18.0084 36.0095C17.7378 36.2912 17.4045 36.5119 17.0313 36.6542C16.7322 36.7675 16.4217 36.8256 16.1111 36.8285C16.0798 36.8285 16.0456 36.8285 16.0143 36.8285C15.9972 36.8285 15.9773 36.8256 15.9602 36.8256C15.9431 36.8256 15.9288 36.8227 15.9117 36.8227C15.8832 36.8256 15.8548 36.8227 15.8234 36.8198Z" fill="#1485F5"/>
<path id="Vector_7" d="M7.43102 9.58393C7.3541 9.58393 7.27718 9.59845 7.19742 9.63039C6.97806 9.71171 6.86696 9.87435 6.81284 9.99633C6.75871 10.1183 6.71028 10.31 6.79005 10.5307L15.4503 34.3366C15.55 34.6096 15.8149 34.7984 16.0998 34.7955C16.1767 34.7955 16.2536 34.781 16.3334 34.749C16.5528 34.6677 16.6639 34.5051 16.718 34.3831C16.7721 34.2611 16.8205 34.0694 16.7408 33.8487L8.08054 10.0399C7.98083 9.7698 7.71304 9.58102 7.43102 9.58393Z" fill="#1485F5"/>
</g>
<g id="Group_2">
<path id="Vector_8" d="M56.6577 12.6276L48.2368 36.5264C48.7495 35.0656 48.8236 33.4538 48.3991 31.9174L55.3615 12.1542C55.9085 10.6004 55.8287 8.92468 55.1393 7.43191C54.4499 5.93914 53.2306 4.8094 51.7066 4.25179C51.0343 4.00493 50.3335 3.88295 49.627 3.88586C48.3963 3.89167 47.2084 4.27502 46.1942 4.99527C45.1573 5.73004 44.3824 6.76104 43.9551 7.97791L40.5024 17.7768L39.5936 16.2085L42.6617 7.50452C43.7471 4.42604 46.5873 2.50054 49.6213 2.48602C50.4673 2.48021 51.3277 2.62543 52.1709 2.93327C56.0367 4.34763 58.0451 8.68944 56.6577 12.6276Z" fill="#1485F5"/>
<path id="Vector_9" d="M51.0343 6.16858C50.5813 6.00304 50.1141 5.92172 49.6412 5.92172C47.9434 5.93044 46.4136 7.03404 45.841 8.66331L41.8271 20.0566L41.2231 21.7701L42.1319 23.3383L42.7358 21.6249L47.1343 9.1367C47.5161 8.05633 48.5245 7.32737 49.6498 7.32156C49.9603 7.31865 50.2708 7.37383 50.5699 7.48419C51.2422 7.73105 51.7835 8.23058 52.0912 8.89565C52.3988 9.55781 52.433 10.3013 52.1909 10.9896L46.2825 27.7557L45.6786 29.4692L46.462 30.8196C46.5048 30.8922 46.5446 30.9677 46.5845 31.0432L47.1913 29.321L53.4842 11.4601C54.2391 9.31676 53.1395 6.9411 51.0343 6.16858ZM42.7187 36.2476C42.9182 36.114 43.0948 35.9601 43.2429 35.7858C43.0891 35.963 42.9125 36.1169 42.7187 36.2476ZM42.4225 36.4219C42.4823 36.3928 42.545 36.358 42.6048 36.3231C42.6105 36.3202 42.6133 36.3173 42.619 36.3144C42.5564 36.3493 42.4908 36.387 42.4225 36.4219Z" fill="#1485F5"/>
<path id="Vector_10" d="M50.3078 10.3013L44.9607 25.4758L44.3568 27.1893L43.448 25.6211L44.0519 23.9076L49.0116 9.8279C49.1085 9.5549 49.3734 9.36322 49.6555 9.36322C49.7324 9.36322 49.8093 9.37774 49.8919 9.40678C50.1113 9.4881 50.2224 9.64783 50.2793 9.76691C50.3363 9.88888 50.3876 10.0777 50.3078 10.3013Z" fill="#1485F5"/>
</g>
<g id="Group_3">
<path id="Vector_11" d="M48.2367 36.5235C48.2338 36.5293 48.2338 36.5351 48.231 36.538C48.1997 36.6281 48.1655 36.7181 48.1313 36.8081C48.1113 36.8546 48.0943 36.9011 48.0743 36.9475C48.0373 37.0376 47.9974 37.1247 47.9575 37.2118C47.9575 37.2147 47.9547 37.2176 47.9518 37.2234C47.9319 37.2699 47.9091 37.3135 47.8863 37.357C47.8635 37.4006 47.8407 37.4471 47.8208 37.4906C47.8008 37.5255 47.7837 37.5603 47.7666 37.5952C47.7154 37.691 47.6612 37.7898 47.6043 37.8827C47.5815 37.9234 47.5558 37.964 47.5302 38.0018C47.5046 38.0453 47.4789 38.086 47.4533 38.1266C47.4276 38.1673 47.3992 38.208 47.3735 38.2486C47.345 38.2893 47.3194 38.3299 47.2909 38.3677C47.2681 38.4025 47.2425 38.4374 47.2197 38.4693C47.1827 38.5216 47.1456 38.571 47.1057 38.6204C47.0829 38.6523 47.0573 38.6843 47.0317 38.7162C46.969 38.7975 46.9035 38.873 46.8379 38.9515C46.7838 39.0153 46.7297 39.0763 46.6727 39.1373C46.667 39.146 46.6585 39.1518 46.6528 39.1606C46.6214 39.1925 46.593 39.2244 46.5616 39.2564C46.5274 39.2942 46.4904 39.3319 46.4534 39.3697C46.422 39.3987 46.3935 39.4306 46.3622 39.4597C46.328 39.4916 46.2938 39.5265 46.2596 39.5584C46.1628 39.6514 46.0602 39.7385 45.9548 39.8256C45.9235 39.8518 45.8893 39.8779 45.858 39.904C45.8295 39.9273 45.801 39.9505 45.7725 39.9708C45.7013 40.026 45.6301 40.0812 45.556 40.1335C45.5218 40.1596 45.4876 40.1828 45.4535 40.2061C45.4193 40.2293 45.3851 40.2554 45.348 40.2787C45.3082 40.3048 45.2683 40.331 45.2284 40.3571C45.1971 40.3774 45.1657 40.3978 45.1344 40.4181C45.0974 40.4413 45.0603 40.4616 45.0233 40.4849C44.9492 40.5284 44.8752 40.572 44.8011 40.6127C44.7754 40.6272 44.7498 40.6417 44.7242 40.6562C44.6529 40.6969 44.5817 40.7317 44.5105 40.7695C44.4763 40.7869 44.4421 40.8043 44.408 40.8189C44.3225 40.8595 44.237 40.8973 44.1544 40.935C44.0946 40.9612 44.0348 40.9873 43.9721 41.0105C43.9721 41.0105 43.9721 41.0105 43.9692 41.0105C43.5704 41.1732 43.1602 41.2952 42.75 41.3823C42.7186 41.3881 42.6845 41.3968 42.6531 41.4026C42.6189 41.4084 42.5847 41.4171 42.5506 41.4229C42.4594 41.4404 42.3654 41.4549 42.2742 41.4665C42.2287 41.4723 42.1802 41.4781 42.1346 41.4839C42.0948 41.4897 42.052 41.4926 42.0121 41.4985C41.978 41.5014 41.9438 41.5072 41.9096 41.5072C41.7814 41.5188 41.6532 41.5275 41.525 41.5333C41.4851 41.5362 41.4424 41.5362 41.4025 41.5362C41.3826 41.5362 41.3626 41.5362 41.3455 41.5362H41.2943C41.2544 41.5362 41.2145 41.5362 41.1746 41.5362C41.1347 41.5362 41.0948 41.5333 41.055 41.5333C40.8157 41.5275 40.5792 41.5072 40.3428 41.4781C40.3029 41.4723 40.2602 41.4665 40.2203 41.4636C40.1804 41.4578 40.1405 41.452 40.1035 41.4462C40.0636 41.4404 40.0237 41.4346 39.9867 41.4258C39.9468 41.42 39.9098 41.4113 39.8699 41.4055C39.8414 41.3997 39.8129 41.3939 39.7873 41.3881C39.7502 41.3794 39.716 41.3736 39.679 41.3649C39.6448 41.3561 39.6106 41.3503 39.5736 41.3416C39.5166 41.3271 39.4625 41.3155 39.4055 41.301C39.3685 41.2923 39.3315 41.2806 39.2944 41.269C39.2916 41.269 39.2916 41.269 39.2887 41.2661C39.2574 41.2574 39.2261 41.2487 39.1976 41.24C39.1235 41.2196 39.0523 41.1964 38.9782 41.1703C38.9697 41.1674 38.964 41.1645 38.9554 41.1616C38.8842 41.1383 38.813 41.1122 38.7418 41.089C38.6364 41.0512 38.5281 41.0076 38.4227 40.9641C38.3543 40.935 38.286 40.906 38.2204 40.8769C38.1863 40.8624 38.1521 40.845 38.1179 40.8305C38.0524 40.7985 37.984 40.7666 37.9185 40.7317C37.8757 40.7085 37.8302 40.6853 37.7874 40.6649C37.7447 40.6417 37.702 40.6185 37.6592 40.5952C37.6165 40.572 37.5738 40.5459 37.531 40.5226C37.4456 40.4733 37.363 40.421 37.2803 40.3687C37.2405 40.3426 37.2006 40.3164 37.1607 40.2903C37.1294 40.27 37.0952 40.2467 37.0638 40.2235C37.0154 40.1916 36.967 40.1567 36.9214 40.1219C36.8844 40.0928 36.8445 40.0667 36.8075 40.0376C36.7277 39.9766 36.6479 39.9128 36.5682 39.8489C36.5368 39.8227 36.5083 39.7995 36.477 39.7733C36.2918 39.6165 36.1124 39.4481 35.9414 39.268C35.9129 39.239 35.8816 39.207 35.8531 39.1751C35.8218 39.1402 35.7876 39.1054 35.7563 39.0705C35.554 38.8469 35.366 38.6059 35.1894 38.3532C35.1409 38.2835 35.0925 38.2109 35.0469 38.1412C35.0213 38.1005 34.9956 38.0599 34.97 38.0192C34.9501 37.9872 34.9301 37.9553 34.9102 37.9234C34.8874 37.8856 34.8674 37.8478 34.8447 37.8101L34.8247 37.7752L28.64 27.0848L22.5636 37.8391C23.31 36.5032 23.6547 34.9436 23.5037 33.3666L27.4493 26.3849C27.6943 25.9521 28.1444 25.685 28.6315 25.6821C29.1215 25.6792 29.5744 25.9434 29.8223 26.3704L33.839 33.3115L36.0269 37.0957C36.3431 37.6416 36.7362 38.1325 37.1949 38.5507C37.2946 38.6436 37.3943 38.7278 37.4997 38.812C37.5738 38.8701 37.6478 38.9282 37.7219 38.9834C37.7532 39.0066 37.7846 39.0299 37.8188 39.0531C37.8501 39.0763 37.8786 39.0967 37.9099 39.117C37.9128 39.1199 37.9185 39.1228 37.9213 39.1257C37.9612 39.1518 38.0011 39.178 38.041 39.2041C38.0808 39.2303 38.1207 39.2564 38.1635 39.2796C38.1692 39.2825 38.1749 39.2854 38.1777 39.2883C38.2176 39.3116 38.2575 39.3377 38.2974 39.358C38.3401 39.3813 38.38 39.4045 38.4227 39.4277C38.4569 39.4481 38.4939 39.4655 38.5281 39.4829C38.5594 39.4974 38.5879 39.5149 38.6193 39.5294C38.662 39.5497 38.7076 39.573 38.7503 39.5933C38.7845 39.6078 38.8187 39.6252 38.8529 39.6398C38.887 39.6543 38.9184 39.6688 38.9526 39.6833C39.058 39.7269 39.1634 39.7675 39.2716 39.8053C39.303 39.8169 39.3343 39.8256 39.3628 39.8372C39.4283 39.8605 39.4967 39.8808 39.5622 39.9011C39.6135 39.9156 39.6619 39.9302 39.7132 39.9418C39.7901 39.9621 39.8699 39.9825 39.9496 39.9999C40.0038 40.0115 40.0579 40.0231 40.1149 40.0347C40.4966 40.1073 40.8869 40.1451 41.28 40.1422C41.3142 40.1422 41.3455 40.1422 41.3797 40.1422C41.4139 40.1422 41.4452 40.1393 41.4794 40.1393C41.5108 40.1393 41.5449 40.1364 41.5763 40.1335C41.6475 40.1306 41.7159 40.1248 41.7871 40.1189C41.8213 40.116 41.8583 40.1131 41.8925 40.1073C42.0235 40.0928 42.1546 40.0754 42.2828 40.0522C42.6389 39.9883 42.9893 39.8924 43.3283 39.7646C43.3596 39.753 43.3909 39.7414 43.4194 39.7298C43.6046 39.6572 43.7869 39.573 43.9664 39.4829C44.0547 39.4365 44.1459 39.3871 44.2313 39.3377C44.2598 39.3203 44.2912 39.3029 44.3196 39.2854C44.351 39.2651 44.3823 39.2477 44.4137 39.2274C44.4706 39.1925 44.5276 39.1547 44.5817 39.117C44.6131 39.0967 44.6444 39.0763 44.6729 39.0531C44.6985 39.0357 44.7242 39.0153 44.7527 38.9979C44.8068 38.9573 44.8638 38.9166 44.9179 38.873C44.9521 38.8469 44.9863 38.8179 45.0204 38.7917C45.0632 38.7569 45.1031 38.722 45.1429 38.6872C45.1458 38.6843 45.1486 38.6814 45.1515 38.6785C45.18 38.6523 45.2113 38.6262 45.2398 38.6C45.2597 38.5826 45.2768 38.5681 45.2939 38.5507C45.311 38.5361 45.3253 38.5216 45.3423 38.5071C45.3452 38.5042 45.348 38.5013 45.348 38.5013C45.3509 38.4984 45.3537 38.4984 45.3537 38.4955C45.3851 38.4664 45.4164 38.4345 45.4478 38.4055C45.4535 38.3996 45.4591 38.3938 45.4648 38.388C45.5047 38.3503 45.5418 38.3125 45.5788 38.2719C45.5816 38.269 45.5845 38.2661 45.5902 38.2602C45.6215 38.2283 45.6529 38.1934 45.6842 38.1586C45.7383 38.1005 45.7896 38.0395 45.8409 37.9785C45.8494 37.9698 45.858 37.9611 45.8637 37.9495C45.9036 37.903 45.9434 37.8537 45.9805 37.8043C45.989 37.7927 45.9976 37.7811 46.0061 37.7723C46.0232 37.752 46.0374 37.7288 46.0545 37.7084C46.1343 37.601 46.2141 37.4906 46.2853 37.3774C46.3109 37.3367 46.3366 37.296 46.3622 37.2554C46.5844 36.8924 46.7696 36.5119 46.912 36.114C46.9263 36.0734 46.9405 36.0298 46.9547 35.9891C47.0288 35.7742 47.0886 35.5535 47.1399 35.3328C47.1627 35.234 47.1798 35.1382 47.1997 35.0395C47.4305 33.718 47.2396 32.3153 46.5759 31.052C46.536 30.9765 46.4961 30.9038 46.4534 30.8283L45.67 29.4779L44.351 27.1952L43.4422 25.6269L42.1232 23.3442L41.2145 21.7759L39.8955 19.4932L38.9868 17.9249L33.7678 8.90726C32.6767 7.02242 30.6655 5.85783 28.5175 5.86944C26.3696 5.88106 24.3697 7.06598 23.2986 8.96244L18.1708 18.0352L17.5498 16.3276L22.1078 8.26543C23.4268 5.93043 25.8653 4.48413 28.5119 4.46961C31.1555 4.45509 33.6083 5.87525 34.9529 8.19863L39.5907 16.2143L40.4994 17.7826L41.8184 20.0653L42.7272 21.6336L44.0462 23.9163L44.9549 25.4846L46.2739 27.7673L47.1827 29.3356L47.6385 30.1226C47.9746 30.7006 48.2253 31.3075 48.3962 31.9261C48.8235 33.4538 48.7495 35.0656 48.2367 36.5235Z" fill="#1485F5"/>
<path id="Vector_12" d="M44.7983 31.9668C44.7784 31.9319 44.7584 31.8942 44.7385 31.8593L43.4793 29.6841L42.5706 28.1158L41.2516 25.8331L40.3428 24.2648L39.0239 21.9821L38.1151 20.4138L32.0529 9.94116C31.3208 8.67782 29.9733 7.89659 28.5347 7.9053C27.0961 7.91401 25.7543 8.70687 25.0364 9.97892L19.0797 20.5154L18.188 22.0924L18.809 23.8001L19.7007 22.2231L26.2244 10.6788C26.7001 9.83661 27.5861 9.31094 28.5376 9.30804C29.489 9.30223 30.3807 9.81918 30.865 10.6556L37.5055 22.1331L38.4142 23.7014L39.7332 25.9841L40.642 27.5524L41.9609 29.8351L42.8697 31.4034L43.5477 32.5767C43.9921 33.3434 44.0263 34.2408 43.7186 35.0046C43.7101 35.0278 43.6987 35.0482 43.6901 35.0714C43.6673 35.1208 43.6446 35.1731 43.6189 35.2195C43.6075 35.2457 43.5933 35.2718 43.579 35.2979C43.5505 35.3502 43.5221 35.3996 43.4907 35.449C43.4679 35.4867 43.4423 35.5245 43.4138 35.5622C43.3967 35.5855 43.3825 35.6087 43.3654 35.629C43.3454 35.6552 43.3226 35.6842 43.3027 35.7103C43.2828 35.7365 43.26 35.7626 43.2372 35.7888C43.0862 35.963 42.9096 36.1198 42.713 36.2505C42.6817 36.2738 42.6475 36.2941 42.6133 36.3144C42.6076 36.3173 42.6048 36.3202 42.5991 36.3231C42.5392 36.358 42.4794 36.3928 42.4167 36.4219C42.3939 36.4335 42.3712 36.4451 42.3484 36.4538C42.3227 36.4654 42.2942 36.48 42.2658 36.4916C42.2544 36.4974 42.2401 36.5032 42.2259 36.509C42.2059 36.5177 42.186 36.5264 42.166 36.5322C42.1404 36.5439 42.1148 36.5526 42.0863 36.5613C42.072 36.5671 42.0549 36.5729 42.0378 36.5787C41.9495 36.6077 41.8612 36.631 41.7701 36.6513C41.7501 36.6571 41.7302 36.66 41.7102 36.6629C41.6988 36.6658 41.6846 36.6687 41.6732 36.6687C41.6504 36.6745 41.6248 36.6774 41.602 36.6804C41.5991 36.6804 41.5963 36.6804 41.5934 36.6804C41.5707 36.6833 41.5479 36.6862 41.5222 36.6891C41.5108 36.6891 41.4994 36.692 41.4909 36.692C41.4681 36.6949 41.4453 36.6978 41.4225 36.6978C41.394 36.7007 41.3655 36.7007 41.3342 36.7036C41.3057 36.7036 41.2744 36.7065 41.2459 36.7065C40.4938 36.7094 39.7788 36.3899 39.2745 35.8468C39.2575 35.8294 39.2432 35.812 39.2261 35.7946C39.2062 35.7742 39.1891 35.751 39.1691 35.7307C39.1207 35.6726 39.0751 35.6116 39.0296 35.5477C38.9868 35.4867 38.9469 35.4257 38.9099 35.3618L37.363 32.687L36.0412 30.4043L35.1324 28.836L29.7625 19.557C29.5147 19.1272 29.0617 18.8658 28.5717 18.8687C28.0817 18.8716 27.6316 19.1388 27.3867 19.5716L22.1107 28.9057L21.2191 30.4827L21.7546 31.9552C21.7831 32.0365 21.8116 32.1149 21.8373 32.1962L22.7318 30.6134L28.5774 20.2715L34.5257 30.5524L35.4373 32.1265L37.722 36.0763C37.7476 36.1198 37.7732 36.1605 37.7989 36.2012C37.8017 36.207 37.8046 36.2128 37.8103 36.2186C37.8245 36.2418 37.8388 36.265 37.853 36.2854C37.8787 36.3231 37.9043 36.3609 37.9299 36.3986C37.9442 36.419 37.9613 36.4393 37.9755 36.4625C38.0068 36.5032 38.0382 36.5439 38.0695 36.5845C38.1094 36.6368 38.1521 36.6862 38.1949 36.7355C38.2177 36.7617 38.2433 36.7907 38.2689 36.8169C38.8244 37.4122 39.5452 37.8304 40.3314 38.0105C40.3656 38.0192 40.397 38.025 40.4311 38.0308C40.4653 38.0366 40.4967 38.0424 40.5308 38.0511C40.5964 38.0628 40.659 38.0715 40.7246 38.0802L40.7388 38.0831C40.7645 38.086 40.7901 38.0889 40.8157 38.0918C40.8528 38.0947 40.8898 38.0976 40.9268 38.1034C40.998 38.1092 41.0664 38.1121 41.1376 38.115C41.1747 38.115 41.2089 38.115 41.2459 38.115C41.3342 38.115 41.4225 38.1121 41.508 38.1034C41.5108 38.1034 41.5137 38.1034 41.5194 38.1034C41.5564 38.1005 41.5963 38.0976 41.6333 38.0947C41.6675 38.0918 41.7045 38.086 41.7387 38.0802C41.7558 38.0802 41.7729 38.0773 41.7872 38.0744C41.8185 38.0686 41.8498 38.0657 41.8812 38.0599C41.9011 38.057 41.9182 38.0541 41.9381 38.0511C41.978 38.0453 42.0179 38.0366 42.0578 38.025C42.0891 38.0192 42.1176 38.0134 42.149 38.0047C42.1603 38.0018 42.1746 37.9989 42.186 37.996C42.2145 37.9902 42.2401 37.9814 42.2686 37.9756C42.2771 37.9727 42.2885 37.9698 42.2971 37.9669C42.3056 37.964 42.3113 37.9611 42.3199 37.9611C42.3455 37.9553 42.3712 37.9466 42.3939 37.9379C42.468 37.9146 42.5392 37.8914 42.6133 37.8624C42.6845 37.8362 42.7586 37.8072 42.827 37.7752C42.8697 37.7549 42.9153 37.7346 42.958 37.7143C42.9893 37.6997 43.0178 37.6852 43.0463 37.6707C43.1261 37.63 43.203 37.5865 43.2799 37.5429C43.4793 37.4238 43.6645 37.2873 43.8354 37.1392C43.8383 37.1363 43.8411 37.1363 43.844 37.1334C43.8781 37.1044 43.9095 37.0753 43.9408 37.0463C43.9864 37.0027 44.032 36.9592 44.0776 36.9156C44.0975 36.8953 44.1174 36.8749 44.1374 36.8546C44.1659 36.8285 44.1915 36.7994 44.2143 36.7704C44.2143 36.7704 44.2172 36.7675 44.2172 36.7646C44.2456 36.7326 44.2713 36.7036 44.2969 36.6716C44.3283 36.6339 44.3596 36.5961 44.3881 36.5584C44.3938 36.5497 44.4023 36.541 44.408 36.5322C44.4308 36.5032 44.4508 36.4742 44.4735 36.4451C44.4821 36.4306 44.4935 36.419 44.502 36.4045C44.5248 36.3725 44.5505 36.3377 44.5704 36.3028C44.5846 36.2825 44.5989 36.2592 44.6131 36.236C44.6245 36.2186 44.6359 36.1982 44.6473 36.1808C44.6644 36.1547 44.6787 36.1286 44.6957 36.1024C44.7157 36.0647 44.7385 36.0298 44.7584 35.9921C44.7784 35.9543 44.8012 35.9136 44.8211 35.8759C44.841 35.8381 44.8581 35.8004 44.8752 35.7626C45.4478 34.5777 45.4507 33.1721 44.7983 31.9668Z" fill="#1485F5"/>
<path id="Vector_13" d="M41.5906 34.5661C41.4852 34.63 41.3684 34.6648 41.2516 34.6648C41.0066 34.6648 40.773 34.5312 40.6505 34.3192L28.566 13.4349L21.2305 26.4139L20.3388 27.9909L19.7178 26.2832L20.6094 24.7062L27.9621 11.6953C28.0817 11.4833 28.3153 11.3468 28.5546 11.3439C28.7939 11.3439 29.0275 11.4775 29.15 11.6895L41.8327 33.6077C42.0236 33.9388 41.9153 34.3715 41.5906 34.5661Z" fill="#1485F5"/>
</g>
</g>
</svg>
