<?xml version="1.0" encoding="UTF-8"?>
<svg width="135px" height="30px" viewBox="0 0 135 30" version="1.1" xmlns="http://www.w3.org/2000/svg" xmlns:xlink="http://www.w3.org/1999/xlink">
    <title>亚洲诚信logo</title>
    <g id="其他" stroke="none" stroke-width="1" fill="none" fill-rule="evenodd">
        <g id="其他/顶部&amp;底部导航" transform="translate(-360.000000, -20.000000)">
            <g id="导航透明" transform="translate(360.000000, 0.000000)">
                <g id="亚洲诚信logo" transform="translate(0.000000, 20.000000)">
                    <g id="编组-6" transform="translate(-0.000000, 0.000000)" fill-rule="nonzero">
                        <path d="M28.0456802,28.1434978 C28.367428,27.793722 28.6087388,27.4977578 28.7428004,26.9327354 C29.4935452,23.1121076 29.8957299,19.0224215 29.8957299,14.9865471 C29.8957299,10.9237668 29.4935452,6.96860987 28.7428004,3.14798206 C28.6355511,2.60986547 28.367428,2.1793722 28.0188679,1.80269058 C27.6703078,1.50672646 27.3485601,1.26457399 26.8123138,1.15695067 C22.9781529,0.403587444 19.0367428,7.64709671e-15 14.9612711,7.64709671e-15 C10.9126117,7.64709671e-15 6.94438928,0.403587444 3.1102284,1.15695067 C2.57398213,1.26457399 2.19860973,1.58744395 1.85004965,1.88340807 C1.5551142,2.23318386 1.26017875,2.58295964 1.15292949,3.14798206 C0.402184707,6.9955157 -1.90512948e-15,10.9506726 -1.90512948e-15,15.0134529 C-1.90512948e-15,19.0762332 0.402184707,23.058296 1.15292949,26.8789238 C1.26017875,27.4170404 1.50148957,27.793722 1.85004965,28.1973094 C2.17179742,28.4932735 2.54716981,28.735426 3.1102284,28.8430493 C6.94438928,29.5964126 10.8857994,30 14.9344588,30 C18.9831182,30 22.9513406,29.5964126 26.7855015,28.8430493 C27.3485601,28.7085202 27.7239325,28.4932735 28.0456802,28.1434978 Z" id="XMLID_201_" fill="#C6272A"></path>
                        <path d="M8.36544191,4.06278027 C8.60675273,4.06278027 8.90168818,4.30493274 8.95531281,4.60089686 C9.14299901,5.65022422 9.3306852,8.31390135 9.35749752,8.60986547 C9.38430983,9.22869955 9.43793446,9.87443946 9.43793446,10.4932735 C9.43793446,10.8430493 9.43793446,11.1659193 9.54518371,11.5156951 C9.54518371,12.0807175 9.54518371,12.6726457 9.5183714,13.2376682 C9.49155909,13.6143498 9.49155909,13.9641256 9.46474677,14.3408072 C9.43793446,14.9058296 9.41112214,15.4439462 9.35749752,16.0089686 C9.3306852,16.1973094 9.30387289,16.6278027 9.30387289,16.6278027 C9.03574975,19.5605381 8.5531281,22.5201794 7.80238332,25.3183857 C7.66832175,25.8565022 7.15888779,25.9372197 7.05163853,25.9372197 L7.05163853,25.9372197 L4.53128103,25.9372197 C4.28997021,25.9372197 3.94141013,25.6950673 4.02184707,25.2914798 C4.55809335,23.2197309 5.09433962,20.6098655 5.46971202,17.8654709 C5.52333664,17.3004484 5.84508441,15.2825112 5.95233366,13.4798206 C5.95233366,13.1569507 6.08639523,11.3273543 6.11320755,10.7623318 C6.11320755,10.4932735 6.14001986,10.1973094 6.14001986,9.92825112 C6.16683217,9.0941704 6.16683217,8.28699552 6.16683217,7.53363229 C6.16683217,7.29147982 5.97914598,6.9955157 5.60377358,6.9955157 L5.60377358,6.9955157 L5.06752731,6.9955157 C4.79940417,6.9955157 4.55809335,6.80717489 4.50446872,6.48430493 L4.50446872,6.48430493 L4.26315789,4.92376682 C4.20953327,4.57399103 4.20953327,4.35874439 4.31678252,4.25112108 C4.45084409,4.11659193 4.50446872,4.06278027 4.8530288,4.06278027 L4.8530288,4.06278027 Z M11.0466733,16.6816143 L23.4339623,16.7085202 C23.7020854,16.7085202 23.9165839,16.9506726 23.9433962,17.1659193 C24.3992056,20.6367713 25.2303873,23.1928251 25.9543198,25.1569507 C26.0883813,25.5067265 25.7934459,25.9372197 25.3644489,25.8834081 L25.3644489,25.8834081 L22.6295929,25.8834081 C22.388282,25.8834081 22.0665343,25.7757848 21.959285,25.3721973 C21.5034757,23.8923767 21.0744786,21.4977578 20.8331678,19.5067265 C20.8063555,19.1300448 20.4846077,18.941704 20.2164846,18.941704 L20.2164846,18.941704 L13.7815293,18.941704 C13.4597815,18.941704 13.2720953,19.2107623 13.245283,19.426009 C13.245283,19.4798206 13.0575968,21.1479821 13.0575968,21.1479821 C13.0307845,21.3901345 13.245283,21.7399103 13.6206554,21.7399103 L13.6206554,21.7399103 L19.3316783,21.7399103 C19.7606753,21.7399103 20.082423,22.0358744 20.16286,22.4394619 L20.16286,22.4394619 L20.3505462,23.5695067 C20.4041708,23.838565 20.1896723,24.2690583 19.7606753,24.2690583 L19.7606753,24.2690583 L10.1350546,24.2690583 C9.73286991,24.2690583 9.38430983,23.8923767 9.49155909,23.4618834 C9.78649454,22.0896861 10.3227408,18.6188341 10.4031778,17.2466368 C10.4031778,17.0313901 10.6444886,16.6816143 11.0466733,16.6816143 L11.0466733,16.6816143 Z M23.0854022,12.941704 C23.3535253,12.941704 23.5948361,13.1569507 23.5948361,13.426009 C23.5948361,13.8565022 23.6484608,14.4753363 23.6752731,14.8789238 C23.7020854,15.1479821 23.4875869,15.4170404 23.1926514,15.4170404 L23.1926514,15.4170404 L11.0466733,15.4170404 L10.9806907,15.4092159 C10.7970871,15.3678791 10.5640516,15.1659193 10.5640516,14.8789238 C10.5640516,14.8789238 10.5757299,14.5859492 10.5881867,14.2543019 L10.5988004,13.9664933 C10.6090963,13.6810762 10.6176763,13.4206278 10.6176763,13.3452915 C10.6176763,13.2107623 10.7517378,12.941704 11.0466733,12.941704 L11.0466733,12.941704 Z M23.1390268,9.22869955 C23.326713,9.22869955 23.6216485,9.41704036 23.6484608,9.68609865 C23.6216485,10.1704036 23.5948361,10.896861 23.5948361,11.3004484 C23.5948361,11.4887892 23.4339623,11.67713 23.2194638,11.67713 L23.2194638,11.67713 L10.9662363,11.67713 C10.7785501,11.67713 10.6444886,11.5426009 10.6444886,11.3811659 C10.6444886,11.3165919 10.6348361,10.8742601 10.6213227,10.4086816 L10.6118054,10.0987424 C10.6051639,9.89500747 10.5980139,9.70224215 10.590864,9.55156951 C10.590864,9.39013453 10.7249255,9.22869955 10.9126117,9.22869955 L10.9126117,9.22869955 Z M23.3803376,4.03587444 L23.4605328,4.04177715 C23.7262386,4.08079161 23.9677711,4.3098247 23.9433962,4.62780269 C23.8897716,5.35426009 23.836147,6.43049327 23.7825223,7.23766816 C23.7825223,7.53363229 23.5143992,7.93721973 23.0317776,7.93721973 L23.0317776,7.93721973 L10.8589871,7.93721973 C10.6444886,7.93721973 10.4836147,7.74887892 10.4836147,7.61434978 C10.4568024,7.15695067 10.3763654,6.51121076 10.2959285,6.02690583 C10.2691162,5.75784753 10.4836147,5.46188341 10.8053625,5.46188341 L10.8053625,5.46188341 L19.8679245,5.46188341 C20.0556107,5.46188341 20.1896723,5.32735426 20.1896723,5.16591928 L20.1896723,5.16591928 L20.2701092,4.38565022 C20.2701092,4.25112108 20.4309831,4.03587444 20.6722939,4.03587444 L20.6722939,4.03587444 L23.3803376,4.03587444 Z" id="形状结合" fill="#FFFFFF"></path>
                    </g>
                    <path d="M74.7259186,1.47982063 L74.7259186,1.53363229 C74.7259186,2.05022422 74.7259186,2.61847534 74.7396465,3.1970583 L74.7527309,3.632287 L77.2730884,3.632287 L77.2730884,4.60089686 L74.7795432,4.60089686 C74.8063555,5.03139013 74.8867925,6.51121076 75.0476663,8.95964126 C75.4383601,8.22165279 75.7699572,7.38482658 76.0593426,6.46610624 L76.2005958,6 L76.2274081,5.94618834 L77.1122145,6.40358744 L77.0854022,6.4573991 C76.5759682,7.93721973 75.959285,9.25560538 75.2621648,10.3587444 C75.3694141,10.8699552 75.5034757,11.2466368 75.6375372,11.4618834 C75.9056604,11.9192825 76.0665343,12 76.1469712,11.9730942 C76.2274081,11.9461883 76.3078451,11.8116592 76.3346574,11.67713 C76.3823237,11.3901345 76.4299901,10.9118087 76.4776564,10.2610493 L76.4955313,10.0089686 L76.4955313,9.92825112 L76.5491559,9.95515695 C76.7703575,10.0560538 76.9613952,10.1418161 77.144892,10.2124439 L77.326713,10.2780269 L77.3535253,10.2780269 L77.3535253,10.3318386 C77.2462761,11.3004484 77.1926514,11.838565 77.1390268,12.0807175 C77.0049652,12.7533632 76.7100298,13.1300448 76.2810328,13.1838565 C75.7179742,13.1569507 75.2353525,12.7533632 74.8331678,11.9730942 C74.7259186,11.838565 74.6454816,11.6502242 74.5650447,11.3811659 C74.1181728,11.9641256 73.6340616,12.4910314 73.1282274,12.9463129 L72.8222443,13.2107623 L72.7686197,13.2376682 L72.7418073,13.1838565 C72.6211519,13.0224215 72.4854146,12.845852 72.3345953,12.6654989 L72.1787488,12.4843049 L72.1251241,12.4304933 L72.1787488,12.4035874 C72.9831182,11.7847534 73.7070506,11.0313901 74.2969215,10.1704036 C74.1191136,9.15081426 73.9894341,7.43092804 73.8622876,5.01074494 L73.8411122,4.60089686 L71.2135055,4.60089686 L71.2135055,6.32286996 L73.3316783,6.32286996 L73.3316783,6.37668161 C73.3048659,8.07174888 73.2780536,9.25560538 73.2512413,10.0358744 C73.2512413,10.5470852 73.1171797,10.9506726 72.8758689,11.1928251 C72.6881827,11.4047085 72.3978556,11.513593 72.040812,11.5375035 L71.8838133,11.5426009 L71.2135055,11.5426009 L71.2135055,11.4887892 C71.1431231,11.088565 71.093269,10.8325392 71.0459809,10.6486127 L71.0258193,10.573991 L71.0251043,10.5471031 L70.9483615,10.9087822 C70.7537239,11.7386185 70.4617676,12.4689882 70.0724926,13.0872317 L69.8997021,13.3452915 L69.8728898,13.3991031 L69.8460775,13.3452915 C69.7053128,13.1434978 69.5494662,12.9719731 69.3898492,12.8193666 L69.2293942,12.6726457 L69.2025819,12.6457399 L69.2293942,12.5919283 C69.265144,12.5560538 69.3008937,12.5082212 69.3366435,12.4564026 L69.3902681,12.3766816 L67.32572,12.3766816 L67.32572,13.103139 L66.4945382,13.103139 L66.4945382,8.74439462 L69.6047666,8.74439462 L69.6047666,12.0269058 C70.0778125,11.1524664 70.3427893,9.93003569 70.3782296,8.38115611 L70.3823237,8.01793722 L70.3823237,3.632287 L73.8679245,3.632287 L73.8411122,2.58295964 L73.8411122,2.58295964 L73.8142999,1.53363229 L73.8142999,1.47982063 L74.7259186,1.47982063 Z M91.6444886,8.87892377 L91.6444886,13.3452915 L90.6792453,13.3452915 L90.6792453,12.6188341 L86.1211519,12.6188341 L86.1211519,13.3452915 L85.1559086,13.3452915 L85.1559086,8.87892377 L91.6444886,8.87892377 Z M83.6812314,1.4529148 L84.6464747,1.74887892 L84.6196624,1.80269058 C84.3291956,2.69955157 84.0387289,3.54035874 83.7327458,4.3095416 L83.5471698,4.76233184 L83.5471698,13.3452915 L82.6087388,13.3452915 L82.6087388,6.67264574 C82.367428,7.09641256 82.1261172,7.50504484 81.8734949,7.8871917 L81.6166832,8.26008969 L81.5630586,8.34080717 L81.5362463,8.26008969 C81.4468719,8.02690583 81.3694141,7.80568012 81.2879841,7.59641256 L81.1608739,7.29147982 L81.1608739,7.26457399 L81.1876862,7.23766816 C82.1626794,5.67223808 82.9382422,3.92891821 83.4942301,2.0683528 L83.6544191,1.50672646 L83.6812314,1.4529148 Z M56.0109235,1.72197309 L56.0109235,5.51569507 C56.0377358,7.69506726 55.876862,9.28251121 55.5819265,10.2242152 C55.311569,11.1860987 54.770854,12.1479821 53.9597815,13.0476925 L53.7318769,13.2914798 L53.7050645,13.3183857 L53.6782522,13.264574 C53.5352532,13.0852018 53.3922542,12.9177877 53.2492552,12.7543597 L53.0347567,12.5112108 L53.0079444,12.4843049 L53.0347567,12.4573991 C53.8391261,11.6502242 54.4021847,10.735426 54.6971202,9.73991031 C54.9473684,8.93632287 55.0808342,7.66397608 55.0975174,5.94474539 L55.0993049,5.56950673 L55.0724926,5.56950673 L55.0724926,1.72197309 L56.0109235,1.72197309 Z M61.5074479,1.72197309 L61.5074479,13.1838565 L60.5690169,13.1838565 L60.5690169,1.72197309 L61.5074479,1.72197309 Z M52.123138,8.12556054 L52.1767627,8.15246637 C52.3733863,8.24215247 52.5580933,8.31988042 52.7467726,8.39362232 L53.0347567,8.50224215 L53.0883813,8.52914798 L53.061569,8.55605381 C52.7711023,9.74439462 52.4992552,11.0261584 52.214995,12.3390633 L52.0427011,13.1300448 L52.0427011,13.1838565 L51.0238332,12.8340807 L51.0506455,12.7802691 C51.408143,11.5022422 51.7284012,10.2242152 51.9803873,8.94618834 L52.123138,8.1793722 L52.123138,8.12556054 Z M46.4657398,2.1793722 L46.4657398,3.17488789 L43.2214499,3.17488789 L43.2214499,5.19282511 L46.0903674,5.19282511 L46.0903674,9.41704036 L43.1946375,9.41704036 L43.1946375,11.7578475 L46.8142999,11.7578475 L46.8142999,12.7264574 L35.714002,12.7264574 L35.714002,11.7578475 L39.2532274,11.7578475 L39.2532274,9.39013453 L36.4379345,9.39013453 L36.4379345,5.16591928 L39.2532274,5.16591928 L39.2532274,3.14798206 L36.0357498,3.14798206 L36.0357498,2.1793722 L46.4657398,2.1793722 Z M58.8262165,2.15246637 L58.8262165,12.4843049 L57.8877855,12.4843049 L57.8877855,2.15246637 L58.8262165,2.15246637 Z M42.2293942,3.17488789 L40.2184707,3.17488789 L40.2184707,6.13452915 L37.4031778,6.13452915 L37.4031778,8.47533632 L40.245283,8.47533632 L40.245283,11.7847534 L42.2562066,11.7847534 L42.2562066,8.47533632 L45.1251241,8.47533632 L45.1251241,6.13452915 L42.2293942,6.13452915 L42.2293942,3.17488789 Z M90.7060576,9.79372197 L86.1479643,9.79372197 L86.1479643,11.7040359 L90.7060576,11.7040359 L90.7060576,9.79372197 Z M68.7467726,9.632287 L67.32572,9.632287 L67.32572,11.4887892 L68.7467726,11.4887892 L68.7467726,9.632287 Z M72.5004965,7.26457399 L71.2403178,7.26457399 L71.2403178,8.31390135 C71.2403178,8.98654709 71.2030785,9.60313901 71.1130834,10.1792476 L71.0526316,10.5201794 L71.1062562,10.5201794 C71.428004,10.5470852 71.6693148,10.573991 71.8301887,10.573991 C72.0178749,10.6008969 72.1519364,10.5470852 72.2591857,10.4394619 C72.3932473,10.3049327 72.4468719,10.0896861 72.4468719,9.8206278 C72.4736842,8.9058296 72.5004965,8.04484305 72.5004965,7.26457399 Z M54.0268123,4.86995516 L54.8848064,5.13901345 L54.8848064,5.19282511 C54.6320045,6.16143498 54.3792027,7.0312071 54.1264009,7.80214148 L54,8.1793722 L53.9731877,8.23318386 L53.9195631,8.20627803 C53.7586892,8.13452915 53.5978153,8.06278027 53.428997,7.99900349 L53.1688183,7.9103139 L53.1151936,7.88340807 L53.1688183,7.82959641 C53.4816286,7.06726457 53.7199603,6.26756353 53.9148461,5.43049327 L54.0268123,4.92376682 L54.0268123,4.86995516 Z M59.5769613,5.0044843 L59.6037736,5.05829596 C59.8182721,5.72556054 60.0327706,6.42726457 60.2335412,7.16340807 L60.3813307,7.72197309 L60.408143,7.77578475 L59.5769613,8.07174888 L59.5769613,8.01793722 C59.4160874,7.33183857 59.2401316,6.64573991 59.0490938,5.98234305 L58.8530288,5.32735426 L58.8262165,5.2735426 L59.5769613,5.0044843 Z M56.8421053,4.92376682 L56.8689176,4.97757848 C57.1146971,5.65022422 57.3604767,6.37892377 57.5597071,7.17924763 L57.673287,7.66816143 L57.7000993,7.72197309 L56.8689176,7.99103139 L56.8689176,7.93721973 C56.6973188,7.20538117 56.5085601,6.4735426 56.2889136,5.76925561 L56.1181728,5.24663677 L56.0913605,5.19282511 L56.8421053,4.92376682 Z M91.7785501,6.94170404 L91.7785501,7.85650224 L85.0486594,7.85650224 L85.0486594,6.94170404 L91.7785501,6.94170404 Z M69.6852036,6.88789238 L69.6852036,7.77578475 L66.4141013,7.77578475 L66.4141013,6.88789238 L69.6852036,6.88789238 Z M51.3455809,4.68161435 L51.3723932,4.70852018 C51.8349057,5.05156951 52.2974181,5.40975336 52.7373076,5.78307175 L53.1688183,6.16143498 L53.1956306,6.18834081 L53.1688183,6.24215247 C53.061569,6.37668161 52.9543198,6.51121076 52.8738828,6.61883408 C52.7934459,6.73991031 52.7130089,6.83071749 52.6438834,6.9139574 L52.5789474,6.9955157 L52.5521351,7.04932735 L52.4985104,6.96860987 C52.0480636,6.53811659 51.5976167,6.10762332 51.1471698,5.7184574 L50.8093347,5.43497758 L50.75571,5.40807175 L51.3455809,4.68161435 Z M96.7120159,1.88340807 C97.8113208,1.88340807 98.7229394,2.82511211 98.7229394,4.00896861 C98.7229394,5.19282511 97.8113208,6.13452915 96.7120159,6.13452915 C95.612711,6.13452915 94.7010924,5.19282511 94.7010924,4.00896861 C94.7010924,2.82511211 95.612711,1.88340807 96.7120159,1.88340807 Z M96.7120159,2.01793722 C95.6663357,2.01793722 94.8351539,2.9058296 94.8351539,4.00896861 C94.8351539,5.11210762 95.693148,6 96.7120159,6 C97.7576961,6 98.5888779,5.11210762 98.5888779,4.00896861 C98.5888779,2.9058296 97.7576961,2.01793722 96.7120159,2.01793722 Z M69.6852036,5.03139013 L69.6852036,5.91928251 L66.4141013,5.91928251 L66.4141013,5.03139013 L69.6852036,5.03139013 Z M91.7785501,5.0044843 L91.7785501,5.91928251 L85.0486594,5.91928251 L85.0486594,5.0044843 L91.7785501,5.0044843 Z M96.6047666,2.71748879 C96.9265144,2.71748879 97.1410129,2.77130045 97.3018868,2.93273543 C97.409136,3.04035874 97.489573,3.20179372 97.489573,3.41704036 C97.489573,3.69955157 97.3458757,3.89966368 97.1303299,4.01737668 L97.0337637,4.06278027 C97.2214499,4.11659193 97.3286991,4.30493274 97.3823237,4.57399103 L97.4453288,4.84681457 C97.4934033,5.05115768 97.5317066,5.1966688 97.5700099,5.2735426 L97.2482622,5.2735426 C97.2214499,5.19282511 97.1678252,4.97757848 97.0873883,4.68161435 C97.0069513,4.33183857 96.8997021,4.19730942 96.6047666,4.19730942 L96.3098312,4.19730942 L96.3098312,5.2735426 L96.0148957,5.2735426 L96.0148957,2.77130045 C96.1757696,2.74439462 96.3902681,2.71748879 96.6047666,2.71748879 Z M51.8818272,1.66816143 L51.9086395,1.69506726 C52.3711519,2.07847534 52.8336643,2.49215247 53.2848653,2.91339686 L53.7318769,3.33632287 L53.7586892,3.3632287 L53.7318769,3.39013453 C53.5911122,3.57174888 53.4503476,3.72309417 53.3208944,3.8668722 L53.1956306,4.00896861 L53.061569,4.17040359 L53.0347567,4.14349776 C52.4150943,3.47384155 51.8801721,2.95299784 51.4488212,2.54317297 L51.2919563,2.39461883 L51.265144,2.367713 L51.8818272,1.66816143 Z M67.8619662,1.39910314 L67.8887786,1.42600897 C68.1300894,1.80941704 68.3412363,2.17769058 68.5335309,2.5308296 L68.7199603,2.87892377 L68.7467726,2.93273543 L68.3177756,3.17488789 L70.1410129,3.17488789 L70.1410129,4.0896861 L65.9851043,4.0896861 L65.9851043,3.20179372 L67.67428,3.20179372 C67.5335154,2.89910314 67.3625869,2.58127803 67.1841174,2.25966928 L67.0039722,1.93721973 L66.9771599,1.88340807 L67.8619662,1.39910314 Z M88.1857001,1.42600897 L88.2125124,1.4529148 C88.3912612,1.73991031 88.5700099,2.03886398 88.7487587,2.34977578 L89.0168818,2.82511211 L89.0436941,2.87892377 L88.6951341,3.06726457 L92.448858,3.06726457 L92.448858,4.00896861 L84.4319762,4.00896861 L84.4319762,3.06726457 L88.0516385,3.06726457 C87.9086395,2.8161435 87.7656405,2.56502242 87.6146971,2.31390135 L87.3813307,1.93721973 L87.3545184,1.88340807 L88.1857001,1.42600897 Z M96.6315789,2.98654709 C96.4975174,2.98654709 96.3902681,3.01345291 96.3366435,3.01345291 L96.3366435,3.92825112 L96.6315789,3.92825112 C96.9533267,3.92825112 97.1678252,3.73991031 97.1678252,3.44394619 C97.1678252,3.12107623 96.9533267,2.98654709 96.6315789,2.98654709 Z M75.5034757,1.53363229 L75.530288,1.56053812 C75.9324727,1.88340807 76.3614697,2.28699552 76.8440914,2.77130045 L76.8709037,2.79820628 L76.2542205,3.52466368 L76.2274081,3.47085202 C75.9485601,3.1264574 75.6182324,2.78206278 75.2638808,2.45144395 L74.9940417,2.20627803 L74.9672294,2.1793722 L75.5034757,1.53363229 Z" id="形状结合" fill="#FFFFFF" fill-rule="nonzero"></path>
                    <path d="M122.880834,15.7399103 L122.880834,28.4125561 L119.502483,28.4125561 L119.502483,15.7399103 L122.880834,15.7399103 Z M78.0506455,15.793722 C78.8282026,15.793722 79.6057597,15.8744395 80.3028798,16.0627803 C81.0268123,16.2511211 81.5898709,16.4394619 81.9920556,16.6547085 L81.9920556,19.6681614 C81.1340616,18.8878924 79.1767627,18.3497758 78.0506455,18.3497758 C77.5143992,18.3497758 77.0585899,18.4304933 76.6832175,18.6188341 C76.1469712,18.8609865 75.8788481,19.5605381 76.388282,19.9910314 C76.5491559,20.1524664 76.9513406,20.2869955 77.5680238,20.4484305 C77.9165839,20.529148 78.2919563,20.6098655 78.6673287,20.690583 C79.0695134,20.7713004 79.4716981,20.8520179 79.8738828,20.9596413 C80.7586892,21.2286996 81.428997,21.632287 81.8311817,22.1973094 C82.3138034,22.735426 82.5283019,23.4349776 82.5283019,24.2959641 C82.5283019,25.5336323 82.0456802,26.529148 81.0536246,27.2825112 C80.0883813,28.0358744 78.7477656,28.4125561 77.0585899,28.4125561 C76.1201589,28.4125561 75.2621648,28.3049327 74.5114201,28.1165919 C73.733863,27.9282511 73.1439921,27.6860987 72.6613704,27.4439462 L72.6613704,24.2959641 C74.082423,25.0762332 75.4766634,25.8565022 77.1122145,25.8565022 C77.7825223,25.8565022 78.265144,25.7757848 78.5868918,25.6143498 C79.0695134,25.3452915 79.2840119,24.5919283 78.774578,24.2421525 C78.5868918,24.1076233 78.2383317,23.9730942 77.7020854,23.8654709 C77.4607746,23.8116592 77.1122145,23.7309417 76.6832175,23.6502242 C76.2542205,23.5695067 75.8520357,23.4887892 75.5034757,23.3811659 C74.5382324,23.0852018 73.8411122,22.6547085 73.3584906,22.0627803 C72.9026812,21.470852 72.6613704,20.7174888 72.6613704,19.8295964 C72.6613704,18.6726457 73.1439921,17.7309417 74.1092354,16.9506726 C75.0744786,16.1973094 76.388282,15.793722 78.0506455,15.793722 Z M113.4429,15.793722 C114.220457,15.793722 114.998014,15.8744395 115.695134,16.0627803 C116.419067,16.2511211 116.982125,16.4394619 117.38431,16.6547085 L117.38431,19.6681614 C116.526316,18.8878924 114.569017,18.3497758 113.4429,18.3497758 C112.906653,18.3497758 112.450844,18.4304933 112.075472,18.6188341 C111.539225,18.8609865 111.271102,19.5605381 111.780536,19.9910314 C111.94141,20.1524664 112.343595,20.2869955 112.960278,20.4484305 C113.308838,20.529148 113.684211,20.6098655 114.086395,20.690583 C114.48858,20.7713004 114.890765,20.8520179 115.292949,20.9596413 C116.177756,21.2286996 116.848064,21.632287 117.250248,22.1973094 C117.706058,22.735426 117.920556,23.4349776 117.920556,24.2959641 C117.920556,25.5336323 117.437934,26.529148 116.445879,27.2825112 C115.480636,28.0358744 114.14002,28.4125561 112.424032,28.4125561 C111.485601,28.4125561 110.627607,28.3049327 109.876862,28.1165919 C109.099305,27.9282511 108.509434,27.6860987 108.026812,27.4439462 L108.026812,24.2959641 C109.447865,25.0762332 110.842105,25.8565022 112.477656,25.8565022 C113.147964,25.8565022 113.630586,25.7757848 113.952334,25.6143498 C114.434955,25.3452915 114.649454,24.5919283 114.14002,24.2421525 C113.952334,24.1076233 113.603774,23.9730942 113.067527,23.8654709 C112.826216,23.8116592 112.477656,23.7309417 112.048659,23.6502242 C111.619662,23.5695067 111.217478,23.4887892 110.868918,23.3811659 C109.903674,23.0852018 109.206554,22.6547085 108.750745,22.0627803 C108.294935,21.470852 108.053625,20.7174888 108.053625,19.8295964 C108.053625,18.6726457 108.536246,17.7309417 109.50149,16.9506726 C110.466733,16.1973094 111.780536,15.793722 113.4429,15.793722 Z M107.571003,10.9775785 L108.268123,12.2152466 L104.112214,18.8071749 L107.222443,28.4125561 L103.495531,28.4125561 C103.01291,26.8789238 102.074479,23.8923767 101.699106,22.6278027 L101.699106,22.6278027 L99.285998,26.4484305 L94.0844091,20.4484305 L92.9314796,20.5560538 L94.5134062,18.8878924 L95.6395233,19.5336323 L97.91857,12.5381166 L102.074479,12.5381166 L103.227408,16.1165919 L100.733863,19.264574 L99.9294935,16.6008969 C99.3396226,18.5112108 98.9106256,19.9372197 98.5352532,21.1748879 L98.5352532,21.1748879 L99.3128103,21.6053812 L107.571003,10.9775785 Z M94.8351539,21.955157 L97.409136,24.9686099 C97.1142006,25.9641256 96.7656405,27.0403587 96.3634558,28.4125561 L96.3634558,28.4125561 L92.7437934,28.4125561 L94.8351539,21.955157 Z M133.820258,16.8430493 C134.624628,17.5156951 135,18.5381166 135,19.9372197 L135,28.0896861 C131.675273,26.0717489 128.243297,30.2152466 125.481629,27.3632287 C124.811321,26.6636771 124.462761,25.7488789 124.462761,24.6726457 C124.462761,23.7847534 124.623635,23.0852018 124.972195,22.5201794 C125.320755,21.955157 125.803376,21.5246637 126.446872,21.2017937 C127.063555,20.8789238 127.841112,20.6636771 128.779543,20.529148 C129.369414,20.4484305 129.986097,20.367713 130.602781,20.3139013 L130.602781,22.6008969 C130.468719,22.6278027 130.307845,22.6278027 130.146971,22.6547085 C129.610725,22.735426 129.20854,22.8161435 128.940417,22.9237668 C128.591857,23.0313901 128.350546,23.2197309 128.16286,23.4618834 C127.975174,23.7040359 127.894737,24 127.894737,24.3766816 C127.894737,24.6188341 127.921549,24.8340807 127.948361,24.9955157 C127.975174,25.1569507 128.082423,25.2914798 128.216485,25.4529148 C128.350546,25.5874439 128.538232,25.6950673 128.725919,25.7757848 C128.913605,25.8565022 129.235353,25.8834081 129.66435,25.8834081 C129.986097,25.8834081 130.334657,25.8026906 130.683217,25.6412556 C131.085402,25.4529148 131.380338,25.2376682 131.648461,24.9686099 L131.648461,20.3946188 L131.648461,20.3946188 C131.75571,17.2735426 126.929494,18.4304933 125.401192,19.2376682 L125.401192,16.3587444 C127.653426,15.6860987 131.889772,15.2017937 133.820258,16.8430493 Z M46.2780536,15.9013453 L46.2780536,18.9686099 L42.8192651,18.9686099 L42.8192651,28.2780269 L39.1996028,28.2780269 L39.1996028,18.9686099 L35.714002,18.9686099 L35.714002,15.9013453 L46.2780536,15.9013453 Z M94.2184707,15.9013453 L94.2184707,18.9686099 L90.7328699,18.9686099 L90.7328699,28.2780269 L87.1400199,28.2780269 L87.1400199,18.9686099 L83.6544191,18.9686099 L83.6544191,15.9013453 L94.2184707,15.9013453 Z M53.6246276,15.9820628 C54.4021847,15.9820628 55.0993049,16.0089686 55.6623635,16.1165919 C56.225422,16.1973094 56.7616683,16.3856502 57.24429,16.6547085 C57.7537239,16.9237668 58.1290963,17.2735426 58.4240318,17.7309417 C58.7189672,18.161435 58.8530288,18.7264574 58.8530288,19.3721973 C58.8530288,20.2869955 58.611718,21.0134529 58.182721,21.5784753 C57.7269116,22.1434978 57.0834161,22.6278027 56.225422,23.0044843 L60.6762661,28.1973094 L56.4935452,28.1973094 L52.8738828,23.7040359 L51.2919563,23.7040359 L51.2919563,28.1973094 L47.8867925,28.1973094 L47.8867925,15.9820628 L53.6246276,15.9820628 Z M71.1062562,15.9820628 L71.1062562,27.9820628 L71.0794439,27.9820628 C67.9424032,26.4753363 63.5988083,29.7309417 61.4270109,27.1748879 C60.7835154,26.4215247 60.4885799,25.2914798 60.4885799,23.8116592 L60.4885799,16.0089686 L63.8937438,16.0089686 L63.8937438,21.955157 C63.8937438,22.5470852 63.9205561,23.058296 63.9473684,23.4618834 C63.9741807,23.8654709 64.0546177,24.1883408 64.1886792,24.4573991 C64.2959285,24.7264574 64.4836147,24.9147982 64.7249255,25.0224215 C64.9662363,25.1569507 65.3147964,25.2107623 65.7437934,25.2107623 C66.0387289,25.2107623 66.3604767,25.1569507 66.7090367,25.0224215 C67.0575968,24.9147982 67.4061569,24.7264574 67.7279047,24.4843049 L67.7279047,15.9820628 L71.1062562,15.9820628 Z M52.8173256,18.2425729 L51.2919563,18.2421525 L51.2919563,21.5246637 L52.3376365,21.5246637 C52.8738828,21.5246637 53.3565045,21.4977578 53.7050645,21.4439462 C54.0804369,21.3901345 54.3753724,21.2825112 54.6434955,21.1210762 C54.8848064,20.9596413 55.0456802,20.7713004 55.1797418,20.5560538 C55.2601787,20.3408072 55.3138034,20.0717489 55.3138034,19.7219731 C55.3138034,19.426009 55.2333664,19.1569507 55.0993049,18.941704 C54.9652433,18.7264574 54.7239325,18.5650224 54.4021847,18.4304933 C54.1608739,18.3497758 53.8927507,18.2959641 53.5978153,18.2690583 C53.3565045,18.2488789 53.1001117,18.2438341 52.8173256,18.2425729 Z" id="形状结合" fill="#FFFFFF"></path>
                </g>
            </g>
        </g>
    </g>
</svg>